<svg width="1000" height="1000" viewBox="0 0 1000 1000" fill="none" xmlns="http://www.w3.org/2000/svg">
<rect width="1000" height="1000" fill="white"/>
<path d="M209.144 477.523L250.33 405.404H290.32L232.386 498.031L290.662 591H251.185L209.144 521.615L167.957 591H127.967L185.218 498.031L128.479 405.404H168.641L209.144 477.523ZM347.4 593.393C343.071 593.393 339.026 592.253 335.267 589.975C331.507 587.696 328.545 584.734 326.38 581.088C324.329 577.328 323.304 573.284 323.304 568.954C323.304 564.739 324.329 560.751 326.38 556.991C328.545 553.231 331.507 550.326 335.267 548.275C339.026 546.111 343.071 545.028 347.4 545.028C351.616 545.028 355.604 546.111 359.363 548.275C363.123 550.326 366.085 553.231 368.25 556.991C370.415 560.751 371.497 564.739 371.497 568.954C371.497 573.284 370.415 577.328 368.25 581.088C366.085 584.734 363.123 587.696 359.363 589.975C355.604 592.253 351.616 593.393 347.4 593.393ZM452.332 591H415.931V343.539H452.332V591ZM575.037 594.76C557.719 594.76 542.452 590.772 529.236 582.797C516.134 574.822 505.994 563.599 498.816 549.13C491.639 534.66 488.05 517.969 488.05 499.057C488.05 479.916 491.639 463.111 498.816 448.642C505.994 434.172 516.134 422.95 529.236 414.975C542.452 406.999 557.719 403.012 575.037 403.012C592.241 403.012 607.394 406.999 620.496 414.975C633.598 422.95 643.681 434.172 650.745 448.642C657.809 463.111 661.341 479.916 661.341 499.057C661.341 517.969 657.809 534.66 650.745 549.13C643.681 563.599 633.598 574.822 620.496 582.797C607.394 590.772 592.241 594.76 575.037 594.76ZM575.037 564.34C585.975 564.34 595.146 561.435 602.552 555.624C609.957 549.7 615.483 541.838 619.129 532.04C622.775 522.128 624.598 511.076 624.598 498.886C624.598 486.695 622.775 475.644 619.129 465.731C615.483 455.819 609.957 447.958 602.552 442.147C595.146 436.223 585.975 433.261 575.037 433.261C564.1 433.261 554.871 436.223 547.352 442.147C539.832 447.958 534.192 455.819 530.433 465.731C526.673 475.644 524.793 486.695 524.793 498.886C524.793 511.076 526.673 522.128 530.433 532.04C534.192 541.838 539.832 549.7 547.352 555.624C554.871 561.435 564.1 564.34 575.037 564.34ZM775.672 664.486C760.291 664.486 746.676 662.265 734.827 657.821C722.978 653.492 713.579 647.169 706.629 638.852C699.793 630.535 695.862 620.622 694.837 609.115H731.922C733.745 617.774 738.473 624.268 746.106 628.598C753.854 632.927 763.88 635.092 776.185 635.092C791.224 635.092 802.845 631.731 811.048 625.009C819.251 618.287 823.353 607.862 823.353 593.734V557.333H821.131C818.055 562.916 814.58 567.872 810.706 572.201C806.832 576.417 801.25 580.176 793.958 583.48C786.666 586.671 777.78 588.266 767.298 588.266C752.601 588.266 739.327 584.677 727.479 577.499C715.743 570.321 706.458 559.783 699.622 545.883C692.9 531.983 689.539 515.406 689.539 496.151C689.539 476.897 692.9 460.263 699.622 446.249C706.344 432.121 715.573 421.412 727.308 414.12C739.157 406.715 752.601 403.012 767.64 403.012C778.121 403.012 786.951 404.721 794.129 408.139C801.307 411.557 806.604 415.259 810.022 419.247C813.44 423.235 817.257 428.59 821.473 435.312H823.694V405.404H859.583V595.102C859.583 610.368 855.994 623.186 848.816 633.554C841.639 644.035 831.784 651.783 819.251 656.796C806.718 661.923 792.192 664.486 775.672 664.486ZM775.33 558.017C785.584 558.017 794.357 555.567 801.648 550.668C808.94 545.769 814.466 538.819 818.226 529.818C821.985 520.704 823.865 509.766 823.865 497.006C823.865 484.359 821.985 473.308 818.226 463.852C814.466 454.281 808.94 446.933 801.648 441.806C794.471 436.679 785.698 434.115 775.33 434.115C764.962 434.115 756.132 436.85 748.841 442.318C741.549 447.673 736.023 455.136 732.264 464.706C728.504 474.162 726.624 484.929 726.624 497.006C726.624 509.197 728.504 519.906 732.264 529.135C736.023 538.249 741.549 545.37 748.841 550.497C756.132 555.51 764.962 558.017 775.33 558.017Z" fill="black"/>
</svg>
